#Comment line ignore any data following # character 
#Hierarchical Translation and Rotation (.htr) file 
[Header]	
#Header keywords are followed by a single value 
FileType HTR		#Single word string
DataType HTRS		#Translation followed by rotation and scale data
FileVersion 1		#integer
NumSegments 64		#integer
NumFrames 3		#integer
DataFrameRate 30		#integer, data frame rate in this file
EulerRotationOrder ZYX
CalibrationUnits mm
RotationUnits Degrees
GlobalAxisofGravity Y
BoneLengthAxis Y
ScaleFactor 1.00
[SegmentNames&Hierarchy]
#CHILD	PARENT
Pinger_Root GLOBAL
Pelvis Pinger_Root
L_Hip Pelvis
R_Hip Pelvis
Rear_Leg01 Pelvis
Spine1 Pelvis
L_Leg01 L_Hip
L_Leg02 L_Leg01
L_Leg03 L_Leg02
L_Foot L_Leg03
L_Toe1_01 L_Foot
L_Toe2_01 L_Foot
L_Toe3_01 L_Foot
planeAlignerLeft L_Foot
L_Toe1_02 L_Toe1_01
L_Toe1_03 L_Toe1_02
L_Toe2_02 L_Toe2_01
L_Toe2_03 L_Toe2_02
L_Toe3_02 L_Toe3_01
L_Toe3_03 L_Toe3_02
planeLockWeightLeft planeAlignerLeft
R_Leg01 R_Hip
R_Leg02 R_Leg01
R_Leg03 R_Leg02
R_Foot R_Leg03
planeAlignerRight R_Foot
R_Toe1_01 R_Foot
R_Toe2_01 R_Foot
R_Toe3_01 R_Foot
planeLockWeightRight planeAlignerRight
R_Toe1_02 R_Toe1_01
R_Toe1_03 R_Toe1_02
R_Toe2_02 R_Toe2_01
R_Toe2_03 R_Toe2_02
R_Toe3_02 R_Toe3_01
R_Toe3_03 R_Toe3_02
Rear_Leg02 Rear_Leg01
Rear_Leg03 Rear_Leg02
Rear_Leg04 Rear_Leg03
Rear_Foot Rear_Leg04
planeAlignerCenter Rear_Foot
Rear_Toe1_01 Rear_Foot
Rear_Toe2_01 Rear_Foot
Rear_Toe3_01 Rear_Foot
planeLockWeightCenter planeAlignerCenter
Rear_Toe1_02 Rear_Toe1_01
Rear_Toe1_03 Rear_Toe1_02
Rear_Toe2_02 Rear_Toe2_01
Rear_Toe2_03 Rear_Toe2_02
Rear_Toe3_02 Rear_Toe3_01
Rear_Toe3_03 Rear_Toe3_02
Back_Bone Spine1
Head Spine1
Motor_Bone Back_Bone
Ping_Mechanism Back_Bone
BN_LookIK Head
bottomMouth Head
L_Mouth01 Head
L_mouthFront Head
mouthGun Head
R_Mouth01 Head
R_mouthFront Head
TopMouth Head
weapon_bone Head
[BasePosition]
#SegmentName Tx, Ty, Tz, Rx, Ry, Rz, BoneLength
Pinger_Root 0.000000 0.000000 0.000000 -90.000000 0.000000 0.000000 10.000000 
Pelvis 0.000000 0.000000 0.000000 0.000000 0.000000 0.000000 10.000000 
L_Hip 0.000000 0.000000 0.000000 0.000000 0.000000 0.000000 10.000000 
R_Hip 0.000000 0.000000 0.000000 0.000000 0.000000 0.000000 10.000000 
Rear_Leg01 0.000000 0.000000 0.000000 0.000000 0.000000 0.000000 10.000000 
Spine1 0.000000 0.000000 0.000000 0.000000 0.000000 0.000000 10.000000 
L_Leg01 0.000000 0.000000 0.000000 0.000000 0.000000 0.000000 10.000000 
L_Leg02 0.000000 0.000000 0.000000 0.000000 0.000000 0.000000 10.000000 
L_Leg03 0.000000 0.000000 0.000000 0.000000 0.000000 0.000000 10.000000 
L_Foot 0.000000 0.000000 0.000000 0.000000 0.000000 0.000000 10.000000 
L_Toe1_01 0.000000 0.000000 0.000000 0.000000 0.000000 0.000000 10.000000 
L_Toe2_01 0.000000 0.000000 0.000000 0.000000 0.000000 0.000000 10.000000 
L_Toe3_01 0.000000 0.000000 0.000000 0.000000 0.000000 0.000000 10.000000 
planeAlignerLeft 0.000000 0.000000 0.000000 0.000000 0.000000 0.000000 10.000000 
L_Toe1_02 0.000000 0.000000 0.000000 0.000000 0.000000 0.000000 10.000000 
L_Toe1_03 0.000000 0.000000 0.000000 0.000000 0.000000 0.000000 10.000000 
L_Toe2_02 0.000000 0.000000 0.000000 0.000000 0.000000 0.000000 10.000000 
L_Toe2_03 0.000000 0.000000 0.000000 0.000000 0.000000 0.000000 10.000000 
L_Toe3_02 0.000000 0.000000 0.000000 0.000000 0.000000 0.000000 10.000000 
L_Toe3_03 0.000000 0.000000 0.000000 0.000000 0.000000 0.000000 10.000000 
planeLockWeightLeft 0.000000 0.000000 0.000000 0.000000 0.000000 0.000000 10.000000 
R_Leg01 0.000000 0.000000 0.000000 0.000000 0.000000 0.000000 10.000000 
R_Leg02 0.000000 0.000000 0.000000 0.000000 0.000000 0.000000 10.000000 
R_Leg03 0.000000 0.000000 0.000000 0.000000 0.000000 0.000000 10.000000 
R_Foot 0.000000 0.000000 0.000000 0.000000 0.000000 0.000000 10.000000 
planeAlignerRight 0.000000 0.000000 0.000000 0.000000 0.000000 0.000000 10.000000 
R_Toe1_01 0.000000 0.000000 0.000000 0.000000 0.000000 0.000000 10.000000 
R_Toe2_01 0.000000 0.000000 0.000000 0.000000 0.000000 0.000000 10.000000 
R_Toe3_01 0.000000 0.000000 0.000000 0.000000 0.000000 0.000000 10.000000 
planeLockWeightRight 0.000000 0.000000 0.000000 0.000000 0.000000 0.000000 10.000000 
R_Toe1_02 0.000000 0.000000 0.000000 0.000000 0.000000 0.000000 10.000000 
R_Toe1_03 0.000000 0.000000 0.000000 0.000000 0.000000 0.000000 10.000000 
R_Toe2_02 0.000000 0.000000 0.000000 0.000000 0.000000 0.000000 10.000000 
R_Toe2_03 0.000000 0.000000 0.000000 0.000000 0.000000 0.000000 10.000000 
R_Toe3_02 0.000000 0.000000 0.000000 0.000000 0.000000 0.000000 10.000000 
R_Toe3_03 0.000000 0.000000 0.000000 0.000000 0.000000 0.000000 10.000000 
Rear_Leg02 0.000000 0.000000 0.000000 0.000000 0.000000 0.000000 10.000000 
Rear_Leg03 0.000000 0.000000 0.000000 0.000000 0.000000 0.000000 10.000000 
Rear_Leg04 0.000000 0.000000 0.000000 0.000000 0.000000 0.000000 10.000000 
Rear_Foot 0.000000 0.000000 0.000000 0.000000 0.000000 0.000000 10.000000 
planeAlignerCenter 0.000000 0.000000 0.000000 0.000000 0.000000 0.000000 10.000000 
Rear_Toe1_01 0.000000 0.000000 0.000000 0.000000 0.000000 0.000000 10.000000 
Rear_Toe2_01 0.000000 0.000000 0.000000 0.000000 0.000000 0.000000 10.000000 
Rear_Toe3_01 0.000000 0.000000 0.000000 0.000000 0.000000 0.000000 10.000000 
planeLockWeightCenter 0.000000 0.000000 0.000000 0.000000 0.000000 0.000000 10.000000 
Rear_Toe1_02 0.000000 0.000000 0.000000 0.000000 0.000000 0.000000 10.000000 
Rear_Toe1_03 0.000000 0.000000 0.000000 0.000000 0.000000 0.000000 10.000000 
Rear_Toe2_02 0.000000 0.000000 0.000000 0.000000 0.000000 0.000000 10.000000 
Rear_Toe2_03 0.000000 0.000000 0.000000 0.000000 0.000000 0.000000 10.000000 
Rear_Toe3_02 0.000000 0.000000 0.000000 0.000000 0.000000 0.000000 10.000000 
Rear_Toe3_03 0.000000 0.000000 0.000000 0.000000 0.000000 0.000000 10.000000 
Back_Bone 0.000000 0.000000 0.000000 0.000000 0.000000 0.000000 10.000000 
Head 0.000000 0.000000 0.000000 0.000000 0.000000 0.000000 10.000000 
Motor_Bone 0.000000 0.000000 0.000000 0.000000 0.000000 0.000000 10.000000 
Ping_Mechanism 0.000000 0.000000 0.000000 0.000000 0.000000 0.000000 10.000000 
BN_LookIK 0.000000 0.000000 0.000000 0.000000 0.000000 0.000000 10.000000 
bottomMouth 0.000000 0.000000 0.000000 0.000000 0.000000 0.000000 10.000000 
L_Mouth01 0.000000 0.000000 0.000000 0.000000 0.000000 0.000000 10.000000 
L_mouthFront 0.000000 0.000000 0.000000 0.000000 0.000000 0.000000 10.000000 
mouthGun 0.000000 0.000000 0.000000 0.000000 0.000000 0.000000 10.000000 
R_Mouth01 0.000000 0.000000 0.000000 0.000000 0.000000 0.000000 10.000000 
R_mouthFront 0.000000 0.000000 0.000000 0.000000 0.000000 0.000000 10.000000 
TopMouth 0.000000 0.000000 0.000000 0.000000 0.000000 0.000000 10.000000 
weapon_bone 0.000000 0.000000 0.000000 0.000000 0.000000 0.000000 10.000000 
#Beginning of Data. Separated by tabs
#Fr	Tx	Ty	Tz	Rx	Ry	Rz	SF
[Pinger_Root]
20 0.000000 0.000000 0.000000 -0.000075 -0.000000 -0.000020 0.000000
21 0.000000 0.000000 0.000000 -0.000075 -0.000000 -0.000020 0.000000
22 0.000000 0.000000 0.000000 -0.000075 -0.000000 -0.000020 0.000000
[Pelvis]
20 -72.728081 4999.681641 3390.431641 74.634109 -80.394730 -79.725624 6041.285645
21 -76.416283 5139.627441 3372.627930 64.094788 -82.289345 -67.945221 6147.864258
22 -67.160019 5278.701660 3320.106445 53.202793 -82.988876 -55.688255 6236.370117
[L_Hip]
20 5.766392 125.831482 872.656799 -178.253326 -81.787636 87.381203 881.701050
21 5.766392 125.831482 872.656799 -178.253296 -81.787666 87.381203 881.701050
22 5.766392 125.831482 872.656799 -178.253342 -81.787712 87.381294 881.701050
[R_Hip]
20 5.765438 125.836372 -872.654907 -1.746701 81.787666 87.381203 881.699829
21 5.765438 125.836372 -872.654907 -1.746713 81.787689 87.381203 881.699829
22 5.765438 125.836372 -872.654907 -1.746677 81.787636 87.381149 881.699829
[Rear_Leg01]
20 -192.298416 -925.602966 -0.001907 167.848724 0.363050 141.654404 945.367432
21 -192.298416 -925.602966 -0.001907 168.849030 2.853972 146.680679 945.367432
22 -192.298416 -925.602966 -0.001907 170.519287 5.025877 153.047363 945.367432
[Spine1]
20 290.604584 5.007505 0.000477 6.134901 -5.374994 43.501354 290.647736
21 290.604584 5.007505 0.000477 4.544702 -5.364642 41.720913 290.647736
22 290.604584 5.007505 0.000477 2.821286 -5.239832 40.685680 290.647736
[L_Leg01]
20 761.932007 -0.002384 -0.069261 72.484436 0.310324 -57.961601 761.932068
21 761.932007 -0.002384 -0.069261 71.396103 2.188836 -59.048981 761.932068
22 761.932007 -0.002384 -0.069261 71.322327 4.123115 -59.624588 761.932068
[L_Leg02]
20 1441.140503 -0.000954 -0.000715 3.029207 -0.855264 -148.713989 1441.140503
21 1441.140503 -0.000954 -0.000715 2.777105 -0.735744 -145.657898 1441.140503
22 1441.140503 -0.000954 -0.000715 2.644878 -0.681477 -143.738678 1441.140503
[L_Leg03]
20 1686.963989 -0.000715 -0.000954 0.022871 -0.005186 104.130882 1686.963989
21 1686.963989 -0.000715 -0.000954 0.019510 -0.003761 105.092560 1686.963989
22 1686.963989 -0.000715 -0.000954 0.016174 -0.002281 106.054001 1686.963989
[L_Foot]
20 3041.570068 -30.715107 11.297464 -28.797478 7.759706 106.236420 3041.746094
21 3041.570068 -30.715107 11.297464 -29.635973 6.871143 106.558052 3041.746094
22 3041.570068 -30.715107 11.297464 -30.990526 6.154758 107.082870 3041.746094
[L_Toe1_01]
20 -188.216690 -224.732346 -21.137953 83.804367 -2.625489 -162.442093 293.899567
21 -188.216690 -224.732346 -21.137953 84.078835 -2.518512 -161.630432 293.899567
22 -188.216690 -224.732346 -21.137953 84.340508 -2.404482 -160.468231 293.899567
[L_Toe2_01]
20 200.746536 -219.926590 148.838394 -80.151550 -13.905202 -44.989288 332.896027
21 200.746536 -219.926590 148.838394 -79.856445 -13.822126 -45.642361 332.896027
22 200.746536 -219.926590 148.838394 -79.472794 -13.630653 -46.705605 332.896027
[L_Toe3_01]
20 188.832520 -219.859131 -191.078659 -96.152023 18.754354 -47.235126 347.140900
21 188.832520 -219.859131 -191.078659 -96.910683 18.568401 -47.895157 347.140900
22 188.832520 -219.859131 -191.078659 -97.786041 18.262278 -48.965942 347.140900
[planeAlignerLeft]
20 0.812531 -811.448792 -0.314951 0.000000 -90.000000 -90.001900 811.449280
21 0.812531 -811.448792 -0.314951 0.000000 -90.000000 -90.001900 811.449280
22 0.812531 -811.448792 -0.314951 0.000000 -90.000000 -90.001900 811.449280
[L_Toe1_02]
20 413.761139 0.000477 0.000000 0.001400 -23.940430 0.001400 413.761139
21 413.761139 0.000477 0.000000 0.001398 -24.174633 0.001398 413.761139
22 413.761139 0.000477 0.000000 0.001396 -24.408831 0.001396 413.761139
[L_Toe1_03]
20 464.317322 0.000358 -0.000089 0.008437 74.007904 0.008437 464.317322
21 464.317322 0.000358 -0.000089 0.007790 72.669884 0.007790 464.317322
22 464.317322 0.000358 -0.000089 0.007123 71.032288 0.007123 464.317322
[L_Toe2_02]
20 342.235809 -0.000477 0.000238 0.001179 -78.703712 0.001179 342.235809
21 342.235809 -0.000477 0.000238 0.001179 -78.716499 0.001179 342.235809
22 342.235809 -0.000477 0.000238 0.001180 -78.545593 0.001180 342.235809
[L_Toe2_03]
20 420.210846 -0.000715 0.000000 -179.998032 72.350967 -179.994492 420.210846
21 420.210846 -0.000715 0.000000 -179.997986 72.553284 -179.994446 420.210846
22 420.210846 -0.000715 0.000000 -179.997818 73.272728 -179.994278 420.210846
[L_Toe3_02]
20 329.270111 0.000954 0.000000 0.001176 -82.234566 0.001176 329.270111
21 329.270111 0.000954 0.000000 0.001176 -82.106308 0.001176 329.270111
22 329.270111 0.000954 0.000000 0.001176 -81.977936 0.001176 329.270111
[L_Toe3_03]
20 439.137451 -0.001907 0.000954 -179.998337 70.747749 -179.994781 439.137451
21 439.137451 -0.001907 0.000954 -179.998306 70.954094 -179.994766 439.137451
22 439.137451 -0.001907 0.000954 -179.998184 71.641838 -179.994629 439.137451
[planeLockWeightLeft]
20 -0.000954 0.000238 -0.000305 -0.011826 -0.004376 0.005620 0.001029
21 -0.000954 0.000238 -0.000305 -0.011826 -0.004376 0.005620 0.001029
22 -0.000954 0.000238 -0.000305 -0.011826 -0.004376 0.005620 0.001029
[R_Leg01]
20 761.455627 -0.001907 -0.000358 75.537361 23.341101 76.977226 761.455688
21 761.455627 -0.001907 -0.000358 75.493675 24.957703 80.181648 761.455688
22 761.455627 -0.001907 -0.000358 77.821350 26.761459 83.556801 761.455688
[R_Leg02]
20 1441.140625 0.000000 -0.000238 -0.395829 -0.008318 -136.319412 1441.140625
21 1441.140625 0.000000 -0.000238 -0.536324 -0.035371 -140.545959 1441.140625
22 1441.140625 0.000000 -0.000238 -0.676481 -0.066274 -145.520767 1441.140625
[R_Leg03]
20 1686.963989 0.000954 0.001431 0.011851 -0.006048 113.604164 1686.963989
21 1686.963989 0.000954 0.001431 0.025245 -0.009718 117.254791 1686.963989
22 1686.963989 0.000954 0.001431 0.034232 -0.016427 120.026619 1686.963989
[R_Foot]
20 3041.560059 -30.531288 -11.204481 17.567299 -37.113342 110.660271 3041.734131
21 3041.560059 -30.531288 -11.204481 17.879841 -38.345306 108.486565 3041.734131
22 3041.560059 -30.531288 -11.204481 17.549295 -37.722279 108.597839 3041.734131
[planeAlignerRight]
20 -0.635147 -812.270569 -0.364304 0.000000 -89.960434 -90.005180 812.270874
21 -0.635147 -812.270569 -0.364304 0.000000 -89.960434 -90.005180 812.270874
22 -0.635147 -812.270569 -0.364304 0.000000 -89.960434 -90.005180 812.270874
[R_Toe1_01]
20 -188.383347 -224.864899 21.052242 93.694885 0.596677 -143.590561 294.101532
21 -188.383347 -224.864899 21.052242 93.552177 0.538654 -143.030457 294.101532
22 -188.383347 -224.864899 21.052242 93.404854 0.512199 -142.701324 294.101532
[R_Toe2_01]
20 200.637817 -220.002121 -148.787384 -99.508705 10.373230 -61.423668 332.857574
21 200.637817 -220.002121 -148.787384 -99.906929 10.577387 -61.425182 332.857574
22 200.637817 -220.002121 -148.787384 -100.305412 10.781521 -61.428139 332.857574
[R_Toe3_01]
20 188.606735 -220.092957 191.126343 -72.092827 -13.529194 -63.818802 347.192566
21 188.606735 -220.092957 191.126343 -71.815979 -13.860728 -63.858150 347.192566
22 188.606735 -220.092957 191.126343 -71.538490 -14.192078 -63.899216 347.192566
[planeLockWeightRight]
20 -0.000477 0.000000 0.000000 -0.011823 -0.004379 -0.000027 0.000477
21 -0.000477 0.000000 0.000000 -0.011823 -0.004379 -0.000027 0.000477
22 -0.000477 0.000000 0.000000 -0.011823 -0.004379 -0.000027 0.000477
[R_Toe1_02]
20 413.762085 0.000477 -0.000119 0.001388 -25.439672 0.001388 413.762085
21 413.762085 0.000477 -0.000119 0.001395 -24.593670 0.001395 413.762085
22 413.762085 0.000477 -0.000119 0.001408 -22.971287 0.001408 413.762085
[R_Toe1_03]
20 464.317810 0.000000 0.001088 0.002981 43.630581 0.002981 464.317810
21 464.317810 0.000000 0.001088 0.000618 38.507328 -0.003264 464.317810
22 464.317810 0.000000 0.001088 0.000802 32.405766 -0.003188 464.317810
[R_Toe2_02]
20 342.234741 -0.000954 0.000238 0.001187 -72.997620 0.001187 342.234741
21 342.234741 -0.000954 0.000238 -0.000580 -73.960388 -0.000580 342.234741
22 342.234741 -0.000954 0.000238 -0.002343 -74.923080 -0.002343 342.234741
[R_Toe2_03]
20 420.210846 0.000715 -0.000268 0.047213 87.151115 0.047213 420.210846
21 420.210846 0.000715 -0.000268 0.000000 89.972023 -0.001749 420.210846
22 420.210846 0.000715 -0.000268 -179.975403 87.116829 -179.978897 420.210846
[R_Toe3_02]
20 329.270355 -0.000477 -0.000954 0.001182 -76.473518 0.001182 329.270355
21 329.270355 -0.000477 -0.000954 0.001181 -77.368370 0.001181 329.270355
22 329.270355 -0.000477 -0.000954 0.001180 -78.263092 0.001180 329.270355
[R_Toe3_03]
20 439.137939 0.000238 0.001431 -0.040416 88.296471 -0.036919 439.137939
21 439.137939 0.000238 0.001431 -179.932449 89.049416 -179.928940 439.137939
22 439.137939 0.000238 0.001431 -179.983475 86.395653 -179.979980 439.137939
[Rear_Leg02]
20 1162.777710 -0.029802 0.005960 -5.769585 -1.650330 148.224472 1162.777710
21 1162.777710 -0.029802 0.005960 -7.162405 -2.433024 155.165787 1162.777710
22 1162.777710 -0.029802 0.005960 -8.683767 -2.367906 169.656082 1162.777710
[Rear_Leg03]
20 607.192505 -0.013351 -0.073195 -0.013571 0.000466 31.937330 607.192505
21 607.192505 -0.013351 -0.073195 -0.013541 0.001007 36.512108 607.192505
22 607.192505 -0.013351 -0.073195 -0.013578 0.000168 29.419138 607.192505
[Rear_Leg04]
20 995.874512 -0.020504 -0.011921 -0.032543 -0.005497 166.589661 995.874573
21 995.874512 -0.020504 -0.011921 -0.032446 -0.006043 164.665512 995.874573
22 995.874512 -0.020504 -0.011921 -0.032592 -0.005198 167.644882 995.874573
[Rear_Foot]
20 3096.176270 -0.067472 -0.041425 54.980614 83.814140 -159.266251 3096.176270
21 3096.176270 -0.067472 -0.041425 73.909264 83.505142 -142.441620 3096.176270
22 3096.176270 -0.067472 -0.041425 92.373970 82.837982 -126.603966 3096.176270
[planeAlignerCenter]
20 0.350077 0.966311 -838.790894 0.000009 0.000003 -179.999985 838.791565
21 0.350077 0.966311 -838.790894 0.000009 0.000003 -179.999985 838.791565
22 0.350077 0.966311 -838.790894 0.000009 0.000003 -179.999985 838.791565
[Rear_Toe1_01]
20 0.653352 83.966492 -371.173737 -0.050403 31.647587 89.800728 380.553192
21 0.653352 83.966492 -371.173737 -0.121696 27.869543 89.630470 380.553192
22 0.653352 83.966492 -371.173737 -0.147648 25.454203 89.510231 380.553192
[Rear_Toe2_01]
20 178.200760 -294.826019 -362.060547 100.299240 69.848396 35.670925 499.765686
21 178.200760 -294.826019 -362.060547 99.186775 65.592628 33.753628 499.765686
22 178.200760 -294.826019 -362.060547 100.126060 61.762314 33.545780 499.765686
[Rear_Toe3_01]
20 -153.359680 -308.780914 -362.060852 -107.945732 72.586754 138.750015 499.952881
21 -153.359680 -308.780914 -362.060852 -106.164696 69.154587 141.263245 499.952881
22 -153.359680 -308.780914 -362.060852 -106.940178 65.944504 141.501678 499.952881
[planeLockWeightCenter]
20 -0.000062 0.000238 0.000000 -0.011814 -0.004373 -0.000015 0.000246
21 -0.000062 0.000238 0.000000 -0.011814 -0.004373 -0.000015 0.000246
22 -0.000062 0.000238 0.000000 -0.011814 -0.004373 -0.000015 0.000246
[Rear_Toe1_02]
20 379.707825 0.194073 0.000477 -0.000562 -33.569679 0.001903 379.707855
21 379.707825 0.194073 0.000477 0.001332 -33.598949 0.001332 379.707855
22 379.707825 0.194073 0.000477 0.001333 -33.389839 0.001333 379.707855
[Rear_Toe1_03]
20 500.129700 0.165701 0.000119 0.009920 76.411346 0.009920 500.129761
21 500.129700 0.165701 0.000119 0.007559 72.136658 0.007559 500.129761
22 500.129700 0.165701 0.000119 -0.004715 67.391586 -0.001149 500.129761
[Rear_Toe2_02]
20 340.494507 0.000238 -0.000954 0.000000 -89.965736 0.002347 340.494507
21 340.494507 0.000238 -0.000954 179.998825 -87.419800 179.998825 340.494507
22 340.494507 0.000238 -0.000954 179.998825 -86.167480 179.998825 340.494507
[Rear_Toe2_03]
20 433.103577 0.000000 0.000238 -179.995392 66.508118 -179.998962 433.103546
21 433.103577 0.000000 0.000238 -179.996216 55.751858 -179.999878 433.103546
22 433.103577 0.000000 0.000238 -179.996506 48.597515 179.999756 433.103546
[Rear_Toe3_02]
20 340.494141 -0.000358 -0.000477 -179.997681 -89.017418 -179.997681 340.494171
21 340.494141 -0.000358 -0.000477 -179.994171 -86.655899 -179.994171 340.494171
22 340.494141 -0.000358 -0.000477 -179.994171 -85.566284 -179.994171 340.494171
[Rear_Toe3_03]
20 433.103577 0.001431 -0.000238 -179.999359 62.779915 -179.995758 433.103546
21 433.103577 0.001431 -0.000238 179.992722 51.660576 -179.999878 433.103546
22 433.103577 0.001431 -0.000238 179.993195 44.206478 -179.999222 433.103546
[Back_Bone]
20 1312.175781 -701.934692 0.000954 -2.741220 -3.604588 -82.007576 1488.125488
21 1312.175781 -701.934692 0.000954 -2.507951 -3.625596 -81.540894 1488.125488
22 1312.175781 -701.934692 0.000954 -2.274860 -3.648499 -81.074318 1488.125488
[Head]
20 1406.159424 809.709290 0.001431 -3.878491 0.542096 -0.407630 1622.625488
21 1406.159424 809.709290 0.001431 -3.732799 0.227693 0.103106 1622.625488
22 1406.159424 809.709290 0.001431 -3.504169 -0.065319 1.369435 1622.625488
[Motor_Bone]
20 1158.364380 -417.834747 0.000477 -1.715584 -0.500729 -106.490166 1231.419434
21 1158.364380 -417.834747 0.000477 -1.448206 -0.249024 -106.238419 1231.419434
22 1158.364380 -417.834747 0.000477 -1.179729 0.001502 -105.985458 1231.419434
[Ping_Mechanism]
20 1172.866943 -391.148987 10.488577 0.000103 -0.000053 82.120995 1236.415894
21 1179.358887 -398.000488 16.113174 0.000103 -0.000053 82.120995 1244.809692
22 1182.765381 -401.151123 21.181391 0.000103 -0.000053 82.120995 1249.121582
[BN_LookIK]
20 193.241119 1380.371704 -0.002861 0.000000 89.965736 -31.038179 1393.832153
21 193.241119 1380.371704 -0.002861 0.000000 89.965736 -31.038179 1393.832153
22 193.241119 1380.371704 -0.002861 0.000000 89.965736 -31.038179 1393.832153
[bottomMouth]
20 -435.092926 615.759399 -0.000954 -0.000022 0.000016 73.527184 753.966492
21 -435.092926 615.759399 -0.000954 -0.000022 0.000016 73.527184 753.966492
22 -435.092926 615.759399 -0.000954 -0.000022 0.000016 73.527184 753.966492
[L_Mouth01]
20 554.440979 7.658243 838.222046 150.204178 23.759130 109.605339 1005.027161
21 554.440979 7.658243 838.222046 150.204178 23.759130 109.605339 1005.027161
22 554.440979 7.658243 838.222046 150.204178 23.759130 109.605339 1005.027161
[L_mouthFront]
20 551.629089 934.514771 339.150421 0.000081 2.804060 79.119301 1136.941284
21 551.629089 934.514771 339.150421 0.000081 2.804060 79.119301 1136.941284
22 551.629089 934.514771 339.150421 0.000081 2.804060 79.119301 1136.941284
[mouthGun]
20 55.332661 1627.420898 0.000000 0.000023 0.000009 -11.038128 1628.361328
21 55.332661 1627.420898 0.000000 0.000023 0.000009 -11.038128 1628.361328
22 55.332661 1627.420898 0.000000 0.000023 0.000009 -11.038128 1628.361328
[R_Mouth01]
20 554.442383 7.659197 -838.223938 29.795891 -23.759109 109.605331 1005.029541
21 554.442383 7.659197 -838.223938 29.795891 -23.759109 109.605331 1005.029541
22 554.442383 7.659197 -838.223938 29.795891 -23.759109 109.605331 1005.029541
[R_mouthFront]
20 551.629089 934.514282 -339.151367 0.000029 -2.803930 79.119133 1136.941162
21 551.629089 934.514282 -339.151367 0.000029 -2.803930 79.119133 1136.941162
22 551.629089 934.514282 -339.151367 0.000029 -2.803930 79.119133 1136.941162
[TopMouth]
20 461.269867 -56.106091 -0.008583 -0.000059 -0.000268 92.025169 464.669525
21 461.269867 -56.106091 -0.008583 -0.000059 -0.000268 92.025169 464.669525
22 461.269867 -56.106091 -0.008583 -0.000059 -0.000268 92.025169 464.669525
[weapon_bone]
20 -987.239868 1448.372803 0.001431 0.000000 89.965736 -31.038221 1752.833740
21 -987.239868 1448.372803 0.001431 0.000000 89.965736 -31.038221 1752.833740
22 -987.239868 1448.372803 0.001431 0.000000 89.965736 -31.038221 1752.833740
